<?xml version="1.0" encoding="iso-8859-1"?>
<!-- Generator: Adobe Illustrator 18.0.0, SVG Export Plug-In . SVG Version: 6.00 Build 0)  -->
<!DOCTYPE svg PUBLIC "-//W3C//DTD SVG 1.1//EN" "http://www.w3.org/Graphics/SVG/1.1/DTD/svg11.dtd">
<svg version="1.1" id="Capa_1" xmlns="http://www.w3.org/2000/svg" xmlns:xlink="http://www.w3.org/1999/xlink" x="0px" y="0px"
	 viewBox="0 0 222.074 222.074" style="enable-background:new 0 0 222.074 222.074;" xml:space="preserve">
<path d="M111.037,46.037c-61.325,0-111.037,65-111.037,65s49.712,65,111.037,65c61.324,0,111.037-65,111.037-65
	S172.361,46.037,111.037,46.037z M111.037,156.037c-24.852,0-45-20.148-45-45s20.148-45,45-45s45,20.148,45,45
	S135.889,156.037,111.037,156.037z M128.715,93.359c4.523,4.524,7.322,10.774,7.322,17.678c0,13.807-11.193,25-25,25
	s-25-11.193-25-25c0-6.903,2.799-13.153,7.322-17.678l17.678,17.678L128.715,93.359z"/>
<g>
</g>
<g>
</g>
<g>
</g>
<g>
</g>
<g>
</g>
<g>
</g>
<g>
</g>
<g>
</g>
<g>
</g>
<g>
</g>
<g>
</g>
<g>
</g>
<g>
</g>
<g>
</g>
<g>
</g>
</svg>
